<svg xmlns="http://www.w3.org/2000/svg">
<defs>
<symbol id="i-brain" viewBox="0 0 24 24" fill="none" stroke="#1a9aaa" stroke-width="1.6" stroke-linecap="round" stroke-linejoin="round"><path d="M9.5 2a2.5 2.5 0 0 0-2.5 2.5v.55A3.5 3.5 0 0 0 4 8.5c0 .64.17 1.23.47 1.75A3.5 3.5 0 0 0 3 13.5 3.5 3.5 0 0 0 6.5 17H7v1.5A2.5 2.5 0 0 0 9.5 21c.98 0 1.84-.56 2.25-1.38V4.38A2.5 2.5 0 0 0 9.5 2Z"/><path d="M14.5 2A2.5 2.5 0 0 1 17 4.5v.55A3.5 3.5 0 0 1 20 8.5c0 .64-.17 1.23-.47 1.75A3.5 3.5 0 0 1 21 13.5 3.5 3.5 0 0 1 17.5 17H17v1.5A2.5 2.5 0 0 1 14.5 21c-.98 0-1.84-.56-2.25-1.38V4.38A2.5 2.5 0 0 1 14.5 2Z"/></symbol>
<symbol id="i-family" viewBox="0 0 24 24" fill="none" stroke="#1a9aaa" stroke-width="1.6" stroke-linecap="round" stroke-linejoin="round"><circle cx="7" cy="6" r="2.6"/><circle cx="17" cy="6" r="2.6"/><circle cx="12" cy="11" r="2"/><path d="M2.5 20v-1.6A4.4 4.4 0 0 1 7 14.2c1 0 1.94.33 2.7.9"/><path d="M21.5 20v-1.6a4.4 4.4 0 0 0-4.5-4.2c-1 0-1.94.33-2.7.9"/><path d="M8.5 21v-.8a3.5 3.5 0 0 1 7 0v.8"/></symbol>
<symbol id="i-speech" viewBox="0 0 24 24" fill="none" stroke="#1a9aaa" stroke-width="1.6" stroke-linecap="round" stroke-linejoin="round"><path d="M21 11.5a8.4 8.4 0 0 1-8.5 8.3 8.7 8.7 0 0 1-3.7-.8L3 20l1.1-5A8 8 0 0 1 3.5 11.5 8.4 8.4 0 0 1 12 3.2a8.4 8.4 0 0 1 9 8.3Z"/><path d="M8.5 10.5h.01M12.2 10.5h.01M15.9 10.5h.01"/><path d="M8.5 14c1 .8 2.2 1.2 3.7 1.2s2.7-.4 3.7-1.2"/></symbol>
<symbol id="i-physio" viewBox="0 0 24 24" fill="none" stroke="#1a9aaa" stroke-width="1.6" stroke-linecap="round" stroke-linejoin="round"><circle cx="13.5" cy="4.5" r="2"/><path d="M4 21l4.3-5.4M12.6 8.8 9.2 12l3 2.5-1 6.5"/><path d="M12.6 8.8 16 11l4 .6M9.2 12l-4.4-.7"/></symbol>
<symbol id="i-hand" viewBox="0 0 24 24" fill="none" stroke="#1a9aaa" stroke-width="1.6" stroke-linecap="round" stroke-linejoin="round"><path d="M18 11V6.5a1.5 1.5 0 0 0-3 0V11m0-4.5V4a1.5 1.5 0 0 0-3 0v6.5m0-5V4.5a1.5 1.5 0 0 0-3 0V12m-2.5-3.5v6.8c0 3.4 2.7 6.2 6.1 6.2h1.2A6.2 6.2 0 0 0 20 15.3V8.5a1.5 1.5 0 0 0-3 0"/></symbol>
<symbol id="i-cycle" viewBox="0 0 24 24" fill="none" stroke="#1a9aaa" stroke-width="1.6" stroke-linecap="round" stroke-linejoin="round"><path d="M20 8A8.5 8.5 0 0 0 5.6 6L4 8m0 0V4m0 4h4"/><path d="M4 16a8.5 8.5 0 0 0 14.4 2l1.6-2m0 0v4m0-4h-4"/></symbol>
<symbol id="i-home" viewBox="0 0 24 24" fill="none" stroke="#1a9aaa" stroke-width="1.6" stroke-linecap="round" stroke-linejoin="round"><path d="M3 11.5 12 4l9 7.5"/><path d="M5.5 9.8V20h13V9.8"/><path d="M10 20v-5h4v5"/></symbol>
<symbol id="i-clipboard" viewBox="0 0 24 24" fill="none" stroke="#1a9aaa" stroke-width="1.6" stroke-linecap="round" stroke-linejoin="round"><rect x="5" y="4" width="14" height="17" rx="2"/><path d="M9 2.5h6a1 1 0 0 1 1 1V5H8V3.5a1 1 0 0 1 1-1Z"/><path d="M9 10h6M9 13.5h6M9 17h3.5"/></symbol>
<symbol id="i-tooth" viewBox="0 0 24 24" fill="none" stroke="#1a9aaa" stroke-width="1.6" stroke-linecap="round" stroke-linejoin="round"><path d="M12 5.5C10.8 4.3 9.2 3.5 7.6 3.5 5 3.5 3.5 5.6 3.5 8c0 4.2 2 7.2 3 10.5.4 1.3 2.2 1.3 2.6 0l1.3-4.4c.3-1 1.9-1 2.2 0l1.3 4.4c.4 1.3 2.2 1.3 2.6 0 1-3.3 3-6.3 3-10.5 0-2.4-1.5-4.5-4.1-4.5-1.6 0-3.2.8-4.4 2Z"/></symbol>
<symbol id="i-shield" viewBox="0 0 24 24" fill="none" stroke="#1a9aaa" stroke-width="1.6" stroke-linecap="round" stroke-linejoin="round"><path d="M12 3 5 5.8v5.4c0 4.4 3 8.4 7 9.8 4-1.4 7-5.4 7-9.8V5.8L12 3Z"/><path d="m9 11.5 2.2 2.2L15.5 9.5"/></symbol>
<symbol id="i-grad" viewBox="0 0 24 24" fill="none" stroke="#1a9aaa" stroke-width="1.6" stroke-linecap="round" stroke-linejoin="round"><path d="m2.5 9 9.5-4.5L21.5 9 12 13.5 2.5 9Z"/><path d="M6.5 11v4.5c0 1.4 2.5 2.8 5.5 2.8s5.5-1.4 5.5-2.8V11"/><path d="M21.5 9v5"/></symbol>
<symbol id="i-heart-hands" viewBox="0 0 24 24" fill="none" stroke="#1a9aaa" stroke-width="1.6" stroke-linecap="round" stroke-linejoin="round"><path d="M12 8.2C12 6.4 13.4 5 15.1 5 17 5 18.3 6.5 18.3 8.2c0 2.6-3.5 4.6-6.3 6.8-2.8-2.2-6.3-4.2-6.3-6.8C5.7 6.5 7 5 8.9 5 10.6 5 12 6.4 12 8.2Z"/><path d="M3 15.5 6.5 19a4 4 0 0 0 2.8 1.2h5.4A4 4 0 0 0 17.5 19l3.5-3.5"/></symbol>
<symbol id="i-puzzle" viewBox="0 0 24 24" fill="none" stroke="#1a9aaa" stroke-width="1.6" stroke-linecap="round" stroke-linejoin="round"><path d="M10 3.5a1.8 1.8 0 0 1 3.6 0V5H17a1.5 1.5 0 0 1 1.5 1.5V10h1.4a1.8 1.8 0 0 1 0 3.6H18.5V17a1.5 1.5 0 0 1-1.5 1.5h-3.4v1.4a1.8 1.8 0 0 1-3.6 0V18.5H6.5A1.5 1.5 0 0 1 5 17v-3.5H3.6a1.8 1.8 0 0 1 0-3.6H5V6.5A1.5 1.5 0 0 1 6.5 5H10V3.5Z"/></symbol>
<symbol id="i-lock" viewBox="0 0 24 24" fill="none" stroke="#1a9aaa" stroke-width="1.6" stroke-linecap="round" stroke-linejoin="round"><rect x="4.5" y="10.5" width="15" height="10" rx="2.5"/><path d="M8 10.5V7.8a4 4 0 0 1 8 0v2.7"/><circle cx="12" cy="15.5" r="1.4"/></symbol>
<symbol id="i-building" viewBox="0 0 24 24" fill="none" stroke="#0f7482" stroke-width="1.6" stroke-linecap="round" stroke-linejoin="round"><rect x="4" y="4" width="10" height="17" rx="1"/><path d="M14 9h5a1 1 0 0 1 1 1v11"/><path d="M2.5 21h19"/><path d="M7.5 8h3M7.5 12h3M7.5 16h3M17 13h.01M17 17h.01"/></symbol>
<symbol id="i-school" viewBox="0 0 24 24" fill="none" stroke="#0f7482" stroke-width="1.6" stroke-linecap="round" stroke-linejoin="round"><path d="M3 21V10l9-6 9 6v11"/><path d="M3 21h18"/><path d="M9 21v-6a3 3 0 0 1 6 0v6"/><circle cx="12" cy="9" r="1.4"/></symbol>
<symbol id="i-handshake" viewBox="0 0 24 24" fill="none" stroke="#0f7482" stroke-width="1.6" stroke-linecap="round" stroke-linejoin="round"><path d="m2.5 9.5 4-2 5 1.5 4.5-1.8 5.5 2.6"/><path d="M7 7.5V15l4.2 4a2 2 0 0 0 2.8 0l4-3.8V8"/><path d="m11 12-1.7 1.7a1.5 1.5 0 0 0 2.1 2.1L13 14.2"/></symbol>
<symbol id="i-globe" viewBox="0 0 24 24" fill="none" stroke="#0f7482" stroke-width="1.6" stroke-linecap="round" stroke-linejoin="round"><circle cx="12" cy="12" r="9"/><path d="M3 12h18M12 3a14.5 14.5 0 0 1 0 18M12 3a14.5 14.5 0 0 0 0 18"/></symbol>
<symbol id="i-book" viewBox="0 0 24 24" fill="none" stroke="#0f7482" stroke-width="1.6" stroke-linecap="round" stroke-linejoin="round"><path d="M12 6.5C10.5 5 8.5 4.5 4 4.5v14c4.5 0 6.5.5 8 2 1.5-1.5 3.5-2 8-2v-14c-4.5 0-6.5.5-8 2Z"/><path d="M12 6.5v14"/></symbol>
<symbol id="i-check" viewBox="0 0 24 24" fill="none" stroke="#2BBDC9" stroke-width="2.2" stroke-linecap="round" stroke-linejoin="round"><circle cx="12" cy="12" r="9" fill="#e8f9fb" stroke="none"/><path d="m8 12 2.5 2.5L16 9"/></symbol>
<symbol id="i-phone" viewBox="0 0 24 24" fill="none" stroke="#1a9aaa" stroke-width="1.7" stroke-linecap="round" stroke-linejoin="round"><path d="M22 16.92v3a2 2 0 0 1-2.18 2 19.79 19.79 0 0 1-8.63-3.07 19.5 19.5 0 0 1-6-6 19.79 19.79 0 0 1-3.07-8.67A2 2 0 0 1 4.11 2h3a2 2 0 0 1 2 1.72c.127.96.361 1.903.7 2.81a2 2 0 0 1-.45 2.11L8.09 9.91a16 16 0 0 0 6 6l1.27-1.27a2 2 0 0 1 2.11-.45c.907.339 1.85.573 2.81.7A2 2 0 0 1 22 16.92z"/></symbol>
<symbol id="i-clock" viewBox="0 0 24 24" fill="none" stroke="#1a9aaa" stroke-width="1.7" stroke-linecap="round" stroke-linejoin="round"><circle cx="12" cy="12" r="9"/><path d="M12 7v5l3 2"/></symbol>
<symbol id="i-wa" viewBox="0 0 24 24"><path fill="currentColor" d="M17.472 14.382c-.297-.149-1.758-.867-2.03-.967-.273-.099-.471-.148-.67.15-.197.297-.767.966-.94 1.164-.173.199-.347.223-.644.075-.297-.15-1.255-.463-2.39-1.475-.883-.788-1.48-1.761-1.653-2.059-.173-.297-.018-.458.13-.606.134-.133.298-.347.446-.52.149-.174.198-.298.298-.497.099-.198.05-.371-.025-.52-.075-.149-.669-1.612-.916-2.207-.242-.579-.487-.5-.669-.51-.173-.008-.371-.01-.57-.01-.198 0-.52.074-.792.372-.272.297-1.04 1.016-1.04 2.479 0 1.462 1.065 2.875 1.213 3.074.149.198 2.096 3.2 5.077 4.487.709.306 1.262.489 1.694.625.712.227 1.36.195 1.871.118.571-.085 1.758-.719 2.006-1.413.248-.694.248-1.289.173-1.413-.074-.124-.272-.198-.57-.347m-5.421 7.403h-.004a9.87 9.87 0 01-5.031-1.378l-.361-.214-3.741.982.998-3.648-.235-.374a9.86 9.86 0 01-1.51-5.26c.001-5.45 4.436-9.884 9.888-9.884 2.64 0 5.122 1.03 6.988 2.898a9.825 9.825 0 012.893 6.994c-.003 5.45-4.437 9.884-9.885 9.884m8.413-18.297A11.815 11.815 0 0012.05 0C5.495 0 .16 5.335.157 11.892c0 2.096.547 4.142 1.588 5.945L.057 24l6.305-1.654a11.882 11.882 0 005.683 1.448h.005c6.554 0 11.89-5.335 11.893-11.893a11.821 11.821 0 00-3.48-8.413z"/></symbol>
</defs>
</svg>
